<svg width="111" height="44" viewBox="0 0 111 44" fill="none" xmlns="http://www.w3.org/2000/svg">
<g id="Group 1">
<g id="Vector" filter="url(#filter0_d_2_3)">
<path d="M4.06192 19.0601L24.2432 2.00023L16.4475 32.7521L16.1408 21.8491L4.06192 19.0601Z" fill="#4F39F6"/>
<path d="M17.798 15.2924L31.9439 19.5243L11.2336 37.2052L11.2384 37.2095L17.798 15.2924Z" fill="#4F39F6"/>
<path d="M40.44 26V9.2H46.404C47.268 9.2 48.048 9.376 48.744 9.728C49.448 10.08 50.004 10.588 50.412 11.252C50.828 11.908 51.036 12.696 51.036 13.616C51.036 14.064 50.964 14.504 50.82 14.936C50.676 15.368 50.472 15.748 50.208 16.076C49.944 16.404 49.624 16.636 49.248 16.772C49.76 16.9 50.184 17.132 50.52 17.468C50.864 17.796 51.136 18.18 51.336 18.62C51.536 19.06 51.676 19.516 51.756 19.988C51.844 20.46 51.888 20.908 51.888 21.332C51.888 22.228 51.672 23.028 51.24 23.732C50.808 24.436 50.228 24.992 49.5 25.4C48.78 25.8 47.984 26 47.112 26H40.44ZM42.936 23.84H46.872C47.384 23.84 47.848 23.712 48.264 23.456C48.688 23.2 49.024 22.848 49.272 22.4C49.52 21.944 49.644 21.432 49.644 20.864C49.644 20.368 49.52 19.9 49.272 19.46C49.024 19.012 48.688 18.652 48.264 18.38C47.848 18.108 47.384 17.972 46.872 17.972H42.936V23.84ZM42.936 15.848H46.14C46.796 15.848 47.36 15.648 47.832 15.248C48.304 14.848 48.54 14.3 48.54 13.604C48.54 12.86 48.304 12.304 47.832 11.936C47.36 11.56 46.796 11.372 46.14 11.372H42.936V15.848Z" fill="#4F39F5"/>
<path d="M53.4366 21.5V14H55.9326V20.888C55.9326 21.424 56.0646 21.912 56.3286 22.352C56.5926 22.792 56.9446 23.144 57.3846 23.408C57.8246 23.664 58.3086 23.792 58.8366 23.792C59.3726 23.792 59.8566 23.664 60.2886 23.408C60.7286 23.144 61.0766 22.792 61.3326 22.352C61.5966 21.912 61.7286 21.424 61.7286 20.888V14H64.2246L64.2366 26H61.7406L61.7286 24.704C61.3206 25.2 60.8126 25.592 60.2046 25.88C59.5966 26.168 58.9446 26.312 58.2486 26.312C57.3606 26.312 56.5526 26.096 55.8246 25.664C55.0966 25.232 54.5166 24.652 54.0846 23.924C53.6526 23.196 53.4366 22.388 53.4366 21.5Z" fill="#4F39F5"/>
<path d="M76.4111 16.496L69.7391 23.504H76.4111V26H66.1631V23.504L72.8351 16.496H66.1631V14H76.4111V16.496Z" fill="#4F39F5"/>
<path d="M88.5752 16.496L81.9032 23.504H88.5752V26H78.3272V23.504L84.9992 16.496H78.3272V14H88.5752V16.496Z" fill="#4F39F5"/>
<path d="M90.9713 26V8H93.4673V26H90.9713Z" fill="#4F39F5"/>
<path d="M103.902 14H106.566L99.9902 32H97.3382L99.5102 26L95.2022 14H97.9262L100.758 22.58L103.902 14Z" fill="#4F39F5"/>
</g>
</g>
<defs>
<filter id="filter0_d_2_3" x="0.0619202" y="0.000228882" width="110.504" height="43.2093" filterUnits="userSpaceOnUse" color-interpolation-filters="sRGB">
<feFlood flood-opacity="0" result="BackgroundImageFix"/>
<feColorMatrix in="SourceAlpha" type="matrix" values="0 0 0 0 0 0 0 0 0 0 0 0 0 0 0 0 0 0 127 0" result="hardAlpha"/>
<feOffset dy="2"/>
<feGaussianBlur stdDeviation="2"/>
<feComposite in2="hardAlpha" operator="out"/>
<feColorMatrix type="matrix" values="0 0 0 0 0 0 0 0 0 0 0 0 0 0 0 0 0 0 0.2 0"/>
<feBlend mode="normal" in2="BackgroundImageFix" result="effect1_dropShadow_2_3"/>
<feBlend mode="normal" in="SourceGraphic" in2="effect1_dropShadow_2_3" result="shape"/>
</filter>
</defs>
</svg>
